<?xml version="1.0" ?><svg id="Слой_1" style="enable-background:new 0 0 200 200;" version="1.1" viewBox="0 0 200 200" xml:space="preserve" xmlns="http://www.w3.org/2000/svg" xmlns:xlink="http://www.w3.org/1999/xlink"><style type="text/css">
	.st0{fill:url(#SVGID_1_);}
	.st1{fill:url(#SVGID_2_);}
	.st2{fill:url(#SVGID_3_);}
	.st3{fill:url(#SVGID_4_);}
	.st4{fill:url(#SVGID_5_);}
</style><g><linearGradient gradientUnits="userSpaceOnUse" id="SVGID_1_" x1="95.9686" x2="105.4689" y1="24.4056" y2="24.4056"><stop offset="0" style="stop-color:#F7931E"/><stop offset="1" style="stop-color:#AF1259"/></linearGradient><circle class="st0" cx="100.7" cy="24.4" r="4.8"/><linearGradient gradientUnits="userSpaceOnUse" id="SVGID_2_" x1="17.101" x2="35.1347" y1="94.2369" y2="94.2369"><stop offset="0" style="stop-color:#F7931E"/><stop offset="1" style="stop-color:#AF1259"/></linearGradient><circle class="st1" cx="26.1" cy="94.2" r="9"/><linearGradient gradientUnits="userSpaceOnUse" id="SVGID_3_" x1="12.9002" x2="21.4838" y1="112.7209" y2="112.7209"><stop offset="0" style="stop-color:#F7931E"/><stop offset="1" style="stop-color:#AF1259"/></linearGradient><circle class="st2" cx="17.2" cy="112.7" r="4.3"/><linearGradient gradientUnits="userSpaceOnUse" id="SVGID_4_" x1="153.2498" x2="170.7502" y1="145.5" y2="145.5"><stop offset="0" style="stop-color:#F7931E"/><stop offset="1" style="stop-color:#AF1259"/></linearGradient><circle class="st3" cx="162" cy="145.5" r="8.8"/><g><linearGradient gradientUnits="userSpaceOnUse" id="SVGID_5_" x1="27.8906" x2="186.7794" y1="102.9614" y2="102.9614"><stop offset="0" style="stop-color:#F7931E"/><stop offset="1" style="stop-color:#AF1259"/></linearGradient><path class="st4" d="M160.5,49.4c-7.6-2.7-15.4-2.9-22.6-1.1c-5.6,1.4-11.4-0.5-15.1-5c-2-2.4-4.6-4.2-7.8-5.1    c-4-1.1-8.1-0.5-11.5,1.3c-3.8,2.1-8.6,1.1-11.2-2.4c-5-6.8-12.4-12-21.5-13.9c-17.4-3.7-35.2,6.4-41,23.2    c-4.6,13.3-0.9,27.2,8,36.4c5.4,5.6,6.3,14,2.7,20.9c-2.2,4.2-3.9,8.8-4.9,13.7c-5.9,27.2,10.1,54.8,36.6,63.2    c29.6,9.4,60.7-7.7,68.9-37.4c0.2-0.7,0.4-1.4,0.5-2.1c1.9-8.2,8.1-14.6,16.2-16.8c13.8-3.8,25.1-15,28.2-30.3    C189.8,75.1,178.9,55.8,160.5,49.4z M100.7,140.1c-0.6,0-1.1,0-1.7,0H82.6v-39.3c0-10,8.1-18.1,18.1-18.1s18.1,8.1,18.1,18.1    c0,10-8.1,18.1-18.1,18.1c-3.7,0-7.1-1.1-9.9-2.9v13c1.9,1.2,6.3,2,11.4,2c16.1-0.7,28.8-14,28.8-30.2c0-16.7-13.5-30.2-30.2-30.2    S70.5,84,70.5,100.7v18v12.2v9.1h-9.1v-39.3c0-21.8,17.6-39.4,39.4-39.4s39.4,17.6,39.4,39.4S122.5,140.1,100.7,140.1z"/></g></g></svg>